<svg xmlns="http://www.w3.org/2000/svg" width="89" height="89" viewBox="0 0 178 178">
    <circle cx="89" cy="89" r="89" style="fill: #f97904"/>
    <path style="fill: #ffffff" d="M57.9,80.8c0-4.7-.4-9.1.2-13.3,0.4-2.5,1.7-5.8,3.7-6.9,3.9-2.3,3.7-5.4,3.7-9,0-11.2,6.1-17.3,17.2-17.3,5,0,10-.1,14.9,0a14.9,14.9,0,0,1,14.7,14.8c0.1,2.2-.2,4.5.1,6.7a4.5,4.5,0,0,0,1.6,3c4.8,3,6.4,7.3,6.1,12.7-0.2,3,0,6,0,9.3H57.9ZM73.9,57.5h30c0.1-1.6.2-2.7,0.2-3.8,0.1-8.2-2.6-11-10.8-11-3.7,0-7.4-.1-11.1,0s-7.7,2.7-8.3,7.1A64.4,64.4,0,0,0,73.9,57.5ZM104.8,69" />
    <path style="fill: #ffffff" d="M141.6,107.9l-7.8,17c-3.3-4-5.4-3.3-8.2,0-5.2,6.3-14.5,5.9-19.7-.5-2.5-3.1-3.8-3.9-6.7-.3-5.4,6.9-14.5,6.9-20.4.4l-2-2.1c-5.4,2.5-9.9,5.6-14.8,6.6S52,126.5,49,121.3l-4.9,3.3-7.7-16.7H141.6Z" />
    <path style="fill: #ffffff" d="M34.7,103.9c0-6.6-.2-12.9.2-19.3C35,83.2,37.5,81,38.8,81s3.6,2.2,3.8,3.7c0.6,3.4.2,7,.2,11H62.2L61.7,84.8H73.8L73,95.9h31.9l-1-11h12.4l-0.6,10.8H135c0-3.5,0-6.9,0-10.4s1.2-4.7,4.2-4.7,4.2,2,4.2,4.8c0,6.1,0,12.2,0,18.6H34.7Z" />
    <path style="fill: #ffffff" d="M102.5,137.2c-11.1,7.8-17.2,7.8-25.8.7-5.3,1.8-9.9,4.6-14.7,4.7s-9.1-2.5-14.5-4.2l-12.6,5.5V133.8c4.2-2.4,8-4.6,11.9-6.6a3.9,3.9,0,0,1,3.3.1c10.9,7.4,14.2,7.3,24.3-.3,5.2,2,9.8,5.2,14.4,5.3s9.3-3.1,14.7-5.1c10.6,7.6,15.4,7.6,25.5-.6l14,7.1v10L129,137.6C117.6,145,113.5,145,102.5,137.2Z" />
</svg>