<svg xmlns="http://www.w3.org/2000/svg" width="70" height="70" viewBox="0 0 178 178">
    <circle cx="89" cy="89" r="89" style="fill: #f97904"/>
    <path style="fill: #ffffff" d="M75.41,55c-2.52-4.25-.23-10.05-6.66-11.62V38.74H83.62L84,31.12h9.55L94,38.48h14.27v4.76c-6.43,1.48-3.89,7.5-6.8,12h6.42c11.24,0,16.61,4.57,16.63,15.65,0,5.56,1.55,8.15,6.91,9.67,6,1.68,5.51,2.62,3.15,8.31-3.39,8.18-5.82,16.75-8.85,25.08-0.4,1.1-1.94,2.57-2.91,2.54-7-.25-12.48,3-17.65,7-11,8.65-19.6,8.7-30.43.1-5.27-4.18-10.84-7.54-18-7.13-0.91.05-2.42-1.23-2.78-2.21-3.34-9-6.28-18.16-9.8-27.08-1.27-3.21-.85-4.88,2.22-6.06A16.21,16.21,0,0,1,49.14,80c3.48-.61,4.07-2.8,3.79-5.92-1.3-14.73,6.3-19.85,18.48-18.89A34.31,34.31,0,0,0,75.41,55ZM119.77,75.6c0-2.43,0-4.14,0-5.84,0-6.36-3.18-9.51-9.58-9.52-14.45,0-28.89,0-43.34,0-4,0-7.49,1.28-8.44,5.2-0.8,3.28-.16,6.91-0.16,10.76,7.65-2.88,14.89-5.26,21.83-8.31s13.24-2.63,19.94.22C106.32,70.74,112.81,73,119.77,75.6ZM75.68,44.34c2,10.91,2,10.91,12,10.91h0.87c10.28,0,10.29,0,12.83-9.81a4,4,0,0,0-.11-1.09H75.68Z" />
    <path style="fill: #ffffff" d="M40.73,131.6c11.12-4.16,21.88-5.74,31.87,3,6.9,6,14.72,9.44,23.89,6.26a31,31,0,0,0,10-5.84c10.07-8.81,20.9-7.8,32.23-3.48-0.8,6.45-1.15,6.74-7,5.13-8.93-2.44-16.56-.39-23.67,5.62-11.15,9.44-25.07,9.46-36.34,0-7.13-6-14.74-8-23.67-5.6C42.33,138.2,42.32,138.16,40.73,131.6Z" />
</svg>