<svg xmlns="http://www.w3.org/2000/svg" width="70" height="70" viewBox="0 0 178 178">
    <circle cx="89" cy="89" r="89" style="fill: #ffbd3f"/>
    <path style="fill: #ffffff" d="M23.64,116.87c2.82-4.61,7.11-5.13,12.15-5.76,3.69-.47,7.07-4.17,10.38-6.71,6.72-5.17,13.18-10.69,20-15.76,5.67-4.22,8-4.11,13.5,0,5.1,3.82,10,7.86,15.52,12.17l11.55-9.22c-1.87-8.77-4-16.65-5.11-24.67-0.77-5.67,2.09-8.07,7.76-7.84,4.15,0.17,8.82.91,12.82,1.24-1.06,4.06-1.56,7.75.56,11.44l-8.93,0,3.46,11.31c6.65-6.2,11.65-2.9,16.94,1,1.81,1.35,4.85,1.07,7.8,1.62-1.1-3.08-.67-1.85-2.42-5.26,8.34-1.65,9.52-8.62,10.15-8.42,2,5.2,4.66,11.23,6.64,16.43v4.05c-2.25,4-6,4.94-10.18,5-2.7,0-5.46-.32-8.08.13s-5.63,1.12-7.66,2.71c-8.56,6.7-16.78,13.84-25.2,20.72a22.53,22.53,0,0,1-15.2,5.5q-27.07-.43-54.14,0c-5.68.09-9.81-1.46-12.29-6.68v-3ZM82.15,111c-5.91-9.36-12.67-9.36-18.07,0H82.15Z" />
    <path style="fill: #ffffff" d="M136.14,54a12.11,12.11,0,0,1,12.08,11.68c0.1,6.47-6.05,13.09-12.23,13.17-5.56.07-12.18-7-12.05-12.84A12.17,12.17,0,0,1,136.14,54Z" />
    <path style="fill: #ffffff" d="M82.15,111H64.08" />  
</svg>