<svg xmlns="http://www.w3.org/2000/svg" width="89" height="89" viewBox="0 0 89 89">
    <circle cx="89" cy="89" r="89" style="fill: #ffbd3f"/>
    <path style="fill: #ffffff" d="M69,143.57c-3.48-1-7-1.71-10.42-2.89a42.33,42.33,0,1,1,53.32-23.83c-2.08,5.07-3,5.23-10,1.46,0.52-1.32,1-2.7,1.62-4.05A33.72,33.72,0,1,0,89.39,130c5.94-3.39,5.94-3.39,12.83.77-7,7.83-16.35,10.55-26,12.79H69Z" />
    <path style="fill: #ffffff" d="M150,98.87c-0.66,2.28-1.22,4.6-2,6.85-4.88,14.06-14.69,22.62-29.43,24.41C103.23,132,91,125.94,83.3,112.41,75.85,99.29,77,86.2,85.6,73.79c0.39-.57.83-1.1,1.41-1.85l6.14,3.89c-6.14,8-8.74,16.51-6.31,26.06a27.53,27.53,0,0,0,11.72,16.58A28.24,28.24,0,0,0,136,112.8c10.87-13.3,8.13-27.25-8.55-43.52,6-5.07,6.1-5,11.75.39,6,5.75,8.61,13.2,10.82,20.88v8.31Z" />
    <path style="fill: #ffffff" d="M120.94,36.51l5.71,2.3-6.68,6-2.15-8.26h3.12Z" />
    <path style="fill: #ffffff" d="M109.11,46.12c10.43,0.79,10.44.79,10.58,9.65,0,2.81,0,5.62,0,8.43l-1.36.37Z" />
    <path style="fill: #ffffff" d="M124.68,64.76c2.51-4.15,4.37-9,7.81-12.13,1.6-1.45,6.26.47,9.53,0.87l0.33,1.43L126,66Z" />
    <path style="fill: #ffffff" d="M97.7,64c10-6.38,14.47-5.87,17.4,2.44C109.13,65.8,102.57,72.21,97.7,64Z" />
    <path style="fill: #ffffff" d="M122,62l-1.27-13.5,10.61,2.59-8,11.51Z" />
    <path style="fill: #ffffff" d="M141.36,44.33l2.29,8.49-10.41-2.44Z" />
    <path style="fill: #ffffff" d="M121.74,47.45l7-7.19,2.5,9.26Z" />
    <path style="fill: #ffffff" d="M129.8,39.24l10.3,2.83-7.71,6Z" />
    <path style="fill: #ffffff" d="M108.83,44L116,36.51,119,46.24Z" />
</svg>