<svg xmlns="http://www.w3.org/2000/svg" width="89" height="89" viewBox="0 0 89 89">
    <circle cx="89" cy="89" r="89" style="fill: #ffbd3f"/>
    <path style="fill: #ffffff" d="M59.75,33.13S82.92,39,89.5,41c0,0-2.11,8.13-3.23,12.61-4,16-5.7,22.17-15.66,35.66-2.71,3.67-7,6.19-10.48,9.26-0.8.7-1.93,1.4-2.18,2.3Q53.38,117.37,49.09,134a15.17,15.17,0,0,0,0,3.63L59.38,142l-0.6,1.73-24.9-6.67,0.28-1.72c1.22,0.07,2.44.05,3.65,0.21,8,1,8.12,1.07,10.42-6.89,2.42-8.41,4.88-16.83,6.76-25.37,0.54-2.45-.37-5.54-1.44-8-3.42-7.78-5.37-15.64-3.3-24.13Z" />
    <path style="fill: #ffffff" d="M121.42,33.68s-23.17,5.84-29.75,7.88c0,0,2.11,8.13,3.23,12.61,4,16,5.7,22.17,15.66,35.66,2.71,3.67,7,6.19,10.48,9.26,0.8,0.7,1.93,1.4,2.18,2.3q4.56,16.54,8.85,33.16a15.17,15.17,0,0,1,0,3.63l-10.32,4.42,0.6,1.73,24.9-6.67L147,135.93c-1.22.07-2.44,0.05-3.65,0.21-8,1-8.12,1.07-10.42-6.89-2.42-8.41-4.88-16.83-6.76-25.37-0.54-2.45.37-5.54,1.44-8,3.42-7.78,5.37-15.64,3.3-24.13Z" />
</svg>